HIERARCHY
ROOT pelvis
{
  OFFSET 8.31499 86.4064 -18.4014
  CHANNELS 6 Xposition Yposition Zposition Zrotation Xrotation Yrotation
  JOINT lfemur
  {
    OFFSET 0 7.45202 0
    CHANNELS 3 Zrotation Xrotation Yrotation
    JOINT ltibia
    {
      OFFSET 0 0 -44.0273
      CHANNELS 3 Zrotation Xrotation Yrotation
      JOINT lfoot
      {
        OFFSET 0 0 -38.0988
        CHANNELS 3 Zrotation Xrotation Yrotation
        JOINT ltoes
        {
          OFFSET 17.1303 0 0
          CHANNELS 3 Zrotation Xrotation Yrotation
          End Site
          {
            OFFSET 0 0 0
          }
        }
      }
    }
  }
  JOINT rfemur
  {
    OFFSET 0 -7.45202 0
    CHANNELS 3 Zrotation Xrotation Yrotation
    JOINT rtibia
    {
      OFFSET 0 0 -44.0273
      CHANNELS 3 Zrotation Xrotation Yrotation
      JOINT rfoot
      {
        OFFSET 0 0 -38.0988
        CHANNELS 3 Zrotation Xrotation Yrotation
        JOINT rtoes
        {
          OFFSET 17.1303 0 0
          CHANNELS 3 Zrotation Xrotation Yrotation
          End Site
          {
            OFFSET 0 0 0
          }
        }
      }
    }
  }
  JOINT thorax
  {
    OFFSET -5.57565 0.683859 13.6957
    CHANNELS 3 Zrotation Xrotation Yrotation
    JOINT head
    {
      OFFSET -1.34472 0.735804 32.5388
      CHANNELS 3 Zrotation Xrotation Yrotation
      End Site
      {
        OFFSET 0 0 0
      }
    }
    JOINT lclavicle
    {
      OFFSET 0 0 25.2555
      CHANNELS 3 Zrotation Xrotation Yrotation
      JOINT lhumerus
      {
        OFFSET 0 15.7019 3.447
        CHANNELS 3 Zrotation Xrotation Yrotation
        JOINT lradius
        {
          OFFSET 0 0 -26.0247
          CHANNELS 3 Zrotation Xrotation Yrotation
          JOINT lhand
          {
            OFFSET 0 0 -20.7467
            CHANNELS 3 Zrotation Xrotation Yrotation
            End Site
            {
              OFFSET 0 0 0
            }
          }
        }
      }
    }
    JOINT rclavicle
    {
      OFFSET 0 0 25.2555
      CHANNELS 3 Zrotation Xrotation Yrotation
      JOINT rhumerus
      {
        OFFSET 0 -15.7019 3.447
        CHANNELS 3 Zrotation Xrotation Yrotation
        JOINT rradius
        {
          OFFSET 0 0 -26.0247
          CHANNELS 3 Zrotation Xrotation Yrotation
          JOINT rhand
          {
            OFFSET 0 0 -20.7467
            CHANNELS 3 Zrotation Xrotation Yrotation
            End Site
            {
              OFFSET 0 0 0
            }
          }
        }
      }
    }
  }
}
MOTION
Frames:	19
Frame Time:	0.0333333
17.617 87.9207 35.2215 -91.0001 55.0815 -83.4853 21.5467 -3.26907 -12.4237 -1.84268e-015 -5.56597e-015 14.5344 17.2859 0.601562 1.93231 3.96904e-015 4.37326e-015 -9.64125 -3.51617 -10.7521 -22.2142 4.64344e-015 -5.1684e-015 14.6942 11.8343 5.5859 24.9168 -1.0839e-014 1.59028e-014 -48.2831 -6.4931 9.18625 12.2303 53.6884 -10.3429 -2.99383 -5.86964 9.09831 0.931339 51.7647 34.0476 -102.431 -30.3123 21.1812 -31.7168 4.73279e-008 6.58211 -8.15957 5.91682 7.95806 -0.822041 -11.1844 -18.8988 -11.5483 12.4471 -15.3295 -50.141 -8.52206e-009 -15.7221 17.1734 
18.3181 88.2283 36.2847 -92.5083 54.0076 -81.5894 20.2233 -3.35794 -11.7411 4.66524e-015 -6.95746e-015 11.5291 17.3977 0.803555 2.56272 -6.14604e-015 1.98785e-015 -7.90939 -3.24387 -11.0771 -21.4294 7.32804e-015 -2.5842e-015 15.6262 10.0786 4.71138 24.8021 1.43209e-015 2.22639e-014 -49.1446 -13.8515 11.7062 11.9158 57.6659 -14.4115 -0.715272 -4.76557 9.0222 0.749009 26.1936 37.4706 -104.64 -34.5836 32.1614 -37.6715 1.17925e-008 1.26665 -11.7549 6.37909 3.98545 -0.445198 -11.491 -16.0165 -15.5182 20.9143 -17.5741 -38.3126 1.05256e-007 -14.4604 14.6291 
18.7151 88.4636 37.5819 -94.6989 57.3693 -79.1086 21.4862 -3.22944 -10.4322 -5.93499e-015 -3.27995e-015 8.65794 18.7201 0.93025 2.74292 -2.86772e-015 2.78299e-015 -6.88271 -0.695104 -11.3196 -20.834 2.52356e-015 2.78299e-015 15.6445 10.7865 5.05305 24.8118 -1.20008e-014 6.36111e-015 -48.4269 -19.764 11.3677 11.2652 62.6569 -16.2066 -0.286897 -7.1664 6.32834 0.794018 1.81104 44.0405 -95.2649 -29.7136 37.777 -47.0272 6.12327e-008 -3.57676 -12.0033 6.46396 4.05391 -0.458908 -11.0549 -13.3627 -20.9603 34.2499 -17.036 -23.2816 -8.91166e-008 -13.1373 10.7175 
18.9586 88.4476 38.6705 -96.3681 63.4041 -77.2305 23.3611 -3.33147 -9.28482 1.26096e-014 1.68967e-015 7.77379 19.3766 0.701397 1.99347 -6.48443e-015 -7.95139e-016 -6.18137 2.28691 -11.9708 -20.5178 -0 0 15.3893 12.1254 5.63647 24.5674 -4.73457e-015 1.27222e-014 -49.1746 -24.2434 10.5582 11.6053 64.7613 -17.7474 -1.5564 -8.49657 3.35507 0.500914 -21.7861 48.2171 -77.8207 -19.8742 35.433 -58.0557 2.03071e-009 -7.52195 -12.8775 6.61255 3.38887 -0.392623 -13.978 -8.11525 -25.9862 44.8587 -13.6544 -13.3456 5.24928e-008 -12.0228 10.5224 
19.1881 88.2901 39.4339 -97.1693 70.8622 -76.361 24.1563 -3.60845 -8.42831 -5.86359e-015 -3.77691e-015 8.5733 20.4673 0.348114 0.932608 3.41678e-015 1.98785e-015 -6.2379 4.27727 -12.8615 -20.7564 -6.6676e-016 2.38542e-015 15.6165 14.3539 6.45045 23.7022 9.95826e-015 1.27222e-014 -49.4055 -26.6948 8.7223 12.2424 63.9046 -18.4647 -3.33814 -7.66132 0.624992 0.084071 -40.8381 51.1295 -60.5118 -15.6603 39.0128 -65.9946 2.23119e-007 -11.1862 -13.4442 6.7499 2.71781 -0.321545 -17.284 -3.17404 -28.5204 45.9583 -10.8574 -10.3242 2.02803e-007 -11.034 13.2826 
19.4431 88.0881 39.9275 -97.8419 78.8276 -76.035 24.3046 -3.69766 -7.20693 3.3218e-016 -1.98785e-015 9.48677 21.0066 0.0421704 0.10982 -1.59241e-014 7.95139e-016 -6.97874 4.95997 -13.4585 -21.4052 -1.41869e-015 -6.36111e-015 16.6372 17.3446 7.37522 22.3432 3.59643e-015 1.59028e-014 -48.5618 -26.5517 6.45773 12.8941 63.303 -18.1044 -3.97266 -6.39304 -0.589029 -0.0659965 -52.0864 50.241 -47.068 -8.72651 39.07 -76.3127 -9.45884e-008 -15.0785 -11.8325 6.2425 3.56513 -0.389716 -17.6721 -2.96049 -28.786 39.8318 -10.6554 -12.4989 -5.78176e-008 -8.90582 15.2735 
19.6134 87.8813 40.1525 -99.3752 85.8363 -74.6324 24.1115 -3.66618 -6.17685 1.03569e-014 -3.77691e-015 10.0214 20.3087 -0.135527 -0.366201 -2.39901e-015 5.56597e-015 -8.33541 5.00591 -13.8064 -21.9524 5.29597e-015 -6.36111e-015 17.1815 19.2187 7.71694 21.0663 -5.82179e-015 2.8625e-014 -49.0855 -24.7404 5.28024 13.0941 64.5179 -17.5694 -2.6747 -5.833 -1.35463 -0.138374 -55.1836 45.4994 -38.6664 -3.01178 32.1348 -84.351 2.90279e-008 -16.5109 -9.48199 5.02779 5.12381 -0.450169 -16.3296 -7.2665 -27.7733 32.7305 -11.7381 -17.5634 8.42256e-009 -5.85573 15.2586 
19.6396 87.6709 40.0865 90.3583 89.395 95.8291 24.0249 -3.6688 -5.62164 7.20302e-017 -3.97569e-016 10.2692 19.004 -0.228012 -0.662016 3.23278e-015 0 -10.3133 4.46231 -14.0463 -21.9358 3.94442e-015 -4.77083e-015 16.9177 20.0112 7.33864 19.3274 -1.08995e-014 3.18055e-015 -49.0881 -23.1984 4.90784 13.1293 66.8814 -17.1013 -1.41299 -5.06477 -2.75913 -0.244439 -55.0052 41.2438 -32.2777 -0.46942 28.0268 -89.001 3.73473e-008 -15.7355 -8.25629 3.79395 6.88542 -0.455491 -14.4946 -13.8526 -25.2884 27.7702 -13.5013 -23.911 -9.85181e-010 -4.97234 13.9745 
19.5595 87.4161 39.7942 75.3336 86.8568 111.206 24.8837 -4.32403 -5.40359 3.63576e-015 -2.18663e-015 10.4151 19.0843 -0.452331 -1.30718 5.09732e-016 2.78299e-015 -10.3793 4.32807 -14.9134 -20.8642 3.78068e-015 -3.18055e-015 15.6436 20.3862 6.508 16.9613 -9.64772e-015 1.27222e-014 -47.6996 -21.7782 4.40739 12.8994 68.1552 -16.5544 -1.44269 -4.36397 -3.7299 -0.284438 -53.3692 38.2351 -27.0267 0.794375 27.0522 -91.7462 -1.06898e-007 -15.3383 -7.19443 2.51408 8.05157 -0.352354 -13.5965 -19.7769 -21.3113 25.247 -15.3503 -29.3082 -3.78943e-008 -8.56079 12.8736 
19.3968 87.1783 39.2559 61.7273 85.9778 125.285 24.8197 -5.23483 -5.41147 6.92783e-015 -2.48481e-015 10.4675 19.6081 -0.515752 -1.44742 6.98976e-015 2.78299e-015 -10.5635 4.22569 -16.14 -19.1164 5.70632e-015 -1.59028e-015 13.6788 19.5102 5.16946 14.2677 -1.55991e-014 1.59028e-014 -47.4593 -20.4067 3.40486 12.1575 67.9188 -16.0478 -2.60181 -4.21102 -4.2338 -0.311443 -50.7434 35.8269 -22.1025 0.835343 25.5698 -91.9348 -4.40184e-008 -14.6886 -5.63419 1.93917 8.25489 -0.278525 -15.6042 -23.1247 -16.4699 25.82 -17.3031 -31.5794 5.93393e-009 -13.4208 12.4149 
19.123 87.0728 38.4552 42.2942 86.4068 145.149 24.3814 -5.44626 -6.00736 6.76468e-015 -1.41634e-015 11.1922 18.8843 -0.407285 -1.19047 -2.83957e-015 1.98785e-015 -11.5695 2.7576 -16.3469 -17.54 2.74814e-015 -1.59028e-015 11.241 18.7296 4.35691 12.6291 -1.66362e-015 1.59028e-014 -46.7453 -19.0084 2.52336 11.517 66.264 -15.6708 -4.07128 -4.55816 -5.03624 -0.400981 -47.8714 34.5532 -17.1596 -0.432787 24.0641 -88.9387 2.88934e-008 -12.2561 -4.74834 1.74746 8.20415 -0.249439 -20.8364 -24.4134 -12.6079 27.7394 -17.7916 -30.1577 2.57248e-007 -16.0474 12.6866 
18.7575 87.0965 37.4775 9.35729 86.9586 178.457 23.5258 -5.09155 -6.33764 9.16312e-016 -4.77083e-015 10.8721 17.933 -0.106016 -0.327583 7.94768e-015 6.36111e-015 -12.6543 1.08609 -15.8316 -16.1135 2.81345e-015 0 8.43901 18.2781 4.27762 12.7254 -8.83409e-015 4.77083e-015 -46.4993 -17.3214 1.90503 10.9209 64.3035 -15.5931 -5.21494 -4.90165 -6.03575 -0.51665 -44.8616 34.0417 -12.9753 -3.01679 23.6632 -82.5194 -1.65636e-008 -8.26642 -4.39569 1.72769 8.37812 -0.251808 -27.8545 -25.0152 -10.343 29.5789 -15.586 -25.3318 1.96783e-007 -16.2979 13.5948 
18.3684 87.1186 36.3279 -30.2473 86.3425 -141.656 22.2311 -4.43001 -6.62948 3.51745e-015 -1.59028e-015 10.1919 17.259 0.216069 0.695434 6.15987e-015 -1.59028e-015 -13.6073 -0.24881 -14.959 -15.0521 2.40397e-015 0 7.12395 16.8362 3.69332 12.0171 -9.75813e-015 1.27222e-014 -45.1873 -15.6542 1.39362 10.3965 62.3616 -15.8773 -5.88517 -4.94698 -7.23459 -0.624512 -40.8372 33.9666 -10.36 -6.46106 23.2994 -74.0229 -2.56692e-009 -5.13638 -2.71871 2.00857 8.99024 -0.313998 -35 -25.9525 -9.49998 31.3081 -11.4885 -18.1324 -9.74481e-008 -14.7725 15.1452 
17.9634 87.1457 35.1117 -53.4613 84.6155 -118.271 20.8299 -3.56068 -7.00238 6.92593e-015 -2.78299e-015 9.65449 16.5811 0.535375 1.79743 -1.42486e-014 8.34896e-015 -14.7244 -1.3063 -14.0036 -14.2437 3.38929e-015 -1.59028e-015 6.70143 15.2769 3.08748 11.1552 -1.11681e-014 1.59028e-014 -44.042 -14.0489 0.980645 9.84412 60.3242 -15.8472 -6.18423 -4.84636 -8.18993 -0.692006 -34.3455 33.4396 -10.7929 -13.0648 25.5672 -61.7325 2.2301e-009 -2.66535 -1.99435 2.68911 9.7269 -0.454655 -42.663 -27.0484 -9.7969 37.153 -7.62155 -9.92793 1.23423e-007 -11.1514 17.3458 
17.5667 87.1524 33.9038 -65.0809 82.3664 -106.61 19.4025 -2.60846 -7.34447 3.41431e-015 -1.19271e-015 9.17148 15.8215 0.825543 2.91062 -5.36459e-015 4.37326e-015 -15.9769 -3.94023 -12.7773 -14.1046 8.01421e-016 0 7.17872 15.3969 2.7599 9.91775 -1.27416e-014 1.43125e-014 -43.1167 -12.8036 0.778163 9.28345 58.4162 -15.3719 -6.09738 -4.52549 -8.92749 -0.703715 -25.5027 32.3202 -14.0893 -24.0137 27.6136 -46.1339 -3.46931e-010 0.162293 -2.44492 3.74138 10.0147 -0.651527 -47.8771 -28.2478 -9.03761 44.7398 -3.81488 -3.84108 -1.14508e-007 -8.51689 18.7761 
17.18 87.1731 32.754 -72.6302 79.9461 -99.1148 18.2732 -1.47742 -7.60382 3.33425e-015 -7.95139e-016 8.47935 14.762 1.06959 4.05214 -8.57363e-015 4.57205e-015 -17.1835 -6.92185 -11.3431 -13.7459 2.40498e-015 0 7.31289 15.9586 2.58431 8.96041 4.8269e-017 9.54166e-015 -42.0995 -11.9282 0.772738 8.90481 56.2591 -14.5745 -5.98014 -4.44394 -9.56687 -0.74002 -14.0352 30.7454 -19.1917 -34.3868 25.3212 -32.0027 -4.06116e-009 2.65769 -1.54496 4.51645 10.1186 -0.795072 -49.0164 -28.8457 -6.4443 50.0155 -1.26748 -1.06275 8.76108e-008 -6.9443 20.7052 
16.8164 87.2078 31.6322 -77.9733 77.8572 -93.8248 17.784 -0.206414 -7.92048 6.6352e-015 -1.59028e-015 7.72747 13.4773 1.25062 5.20353 -7.86989e-015 6.55989e-015 -18.4535 -8.53902 -9.9037 -12.8996 4.3796e-015 -3.18055e-015 6.7456 15.5921 2.39527 8.51763 -5.8217e-015 1.74931e-014 -41.1997 -11.124 0.978258 8.6503 54.1749 -13.8553 -6.28594 -4.28742 -9.96941 -0.743595 -0.21286 28.0144 -25.3368 -39.7994 19.9524 -22.2729 1.72635e-010 5.61675 0.228965 4.68329 9.96709 -0.812351 -48.7819 -28.2194 -4.1206 52.7963 -0.132129 -0.100305 -1.44281e-007 -5.72738 21.8412 
16.5399 87.2307 30.6383 -81.4501 75.9847 -90.3194 16.8298 0.936911 -8.26255 6.69722e-015 -2.38542e-015 6.91851 12.858 1.44566 6.30716 -1.6089e-014 1.17283e-014 -19.5219 -8.72949 -8.75188 -11.9571 6.32148e-016 1.59028e-015 6.0085 13.9555 2.07183 8.27736 -3.19106e-015 1.59028e-014 -40.3156 -10.5884 1.26249 8.35507 52.1447 -13.1567 -6.70402 -3.98193 -10.1273 -0.701257 13.3213 25.0123 -30.5738 -41.9663 15.051 -16.1057 -6.61936e-009 8.99797 1.89145 4.58031 9.76693 -0.778619 -48.9015 -26.9816 -3.18851 53.4839 -0.18952 -0.140319 -2.61997e-008 -5.36685 21.47 
16.3326 87.2192 29.7544 -83.4362 74.7214 -88.2193 16.1982 1.85313 -8.651 9.86406e-015 -2.38542e-015 6.3176 12.4606 1.62678 7.32077 -1.08384e-014 -1.59028e-015 -21.0737 -7.19271 -8.0054 -11.0269 3.33528e-015 -1.59028e-015 5.10466 11.1911 1.64221 8.24207 -1.29041e-014 1.43125e-014 -39.9639 -9.96886 1.59161 8.0656 50.4736 -12.8195 -7.04628 -3.50135 -10.2736 -0.625218 23.6476 23.7782 -33.8052 -42.6373 11.5215 -12.2393 4.28799e-008 11.4609 2.42131 4.38214 9.68496 -0.738611 -48.8531 -25.549 -3.44582 52.4285 -1.37598 -1.05834 -2.52326e-008 -5.57203 19.9704 
